<svg xmlns="http://www.w3.org/2000/svg" xmlns:xlink="http://www.w3.org/1999/xlink" viewBox="0 0 654.27 128"><defs><style>.cls-1{fill:#5b13df;}.cls-2{fill:url(#linear-gradient);}.cls-3{fill:url(#linear-gradient-2);}.cls-4{fill:url(#linear-gradient-3);}</style><linearGradient id="linear-gradient" x1="224.56" y1="66.06" x2="182.5" y2="107.97" gradientUnits="userSpaceOnUse"><stop offset="0" stop-color="#36098a"/><stop offset="1" stop-color="#5b13df"/></linearGradient><linearGradient id="linear-gradient-2" x1="140.3" y1="16.13" x2="231.38" y2="44.62" xlink:href="#linear-gradient"/><linearGradient id="linear-gradient-3" x1="126.06" y1="48.59" x2="189.58" y2="117.73" gradientUnits="userSpaceOnUse"><stop offset="0" stop-color="#5b13df"/><stop offset="0.24" stop-color="#5110c7"/><stop offset="0.75" stop-color="#3d0b9b"/><stop offset="1" stop-color="#36098a"/></linearGradient></defs><g id="Layer_2" data-name="Layer 2"><g id="Layer_1-2" data-name="Layer 1"><path class="cls-1" d="M74.44,122.68,53,87.14c-1.68.16-3.52.16-5.37.16H19.78v35.38H0V5.32H47.61c30,0,47.28,14.59,47.28,40.07,0,18.78-8.72,32-24.31,38.06L96.9,122.68ZM47.61,69.53c18.11,0,28.51-7.71,28.51-23.64,0-15.42-10.4-22.8-28.51-22.8H19.78V69.53Z"/><path class="cls-1" d="M258.37,5.32l28.5,95.4L315.2,5.32h19.45l28.5,95.4,28.33-95.4h20.46L372.71,122.68H352.42L324.59,31.14l-28.17,91.54H276L237.07,5.32Z"/><path class="cls-1" d="M442.11,5.32,505,89.65V5.32h19.45V122.68H505L442.45,38.52v84.16H422.67V5.32Z"/><path class="cls-1" d="M654.27,64c0,33.87-25.66,58.68-61.2,58.68H545.46V5.32h48.11C628.78,5.32,654.27,30,654.27,64Zm-20,.17c0-24-17.94-41.08-41.07-41.08h-28v81.82h28.84C616.88,104.91,634.31,88,634.31,64.17Z"/><path class="cls-2" d="M198.8,82.58c-5.63,9.61-13.51,17.5-24,24a1.71,1.71,0,0,0,.23.13l.91.48.4.21.84.43q.86.45,1.71.87l.53.25,1.2.58.67.3,1.08.49.72.3,1,.45.76.3,1,.41.79.3,1,.38.8.28,1,.35c.27.1.55.18.82.27l1,.33.84.26,1,.3.86.24,1,.28.87.23,1,.25.89.22,1,.23.9.19,1,.21.92.18,1,.19.92.16,1,.16.94.15.57.08a63.88,63.88,0,0,0,28.16-53,64.93,64.93,0,0,0-.53-8.25c-6.95-1.71-13.95-3.7-20.83-5.93l-4.63-1.51c0,1.27-.09,2.54-.19,3.79A69.75,69.75,0,0,1,198.8,82.58Z"/><path class="cls-3" d="M232.75,50.58A64.08,64.08,0,0,0,150.54,3.06a88.78,88.78,0,0,0-7.6,14.81A82.87,82.87,0,0,0,137.4,43.3c0,.15,0,.3,0,.45,5.46-2.06,10.85-4.37,16.08-6.91a193.42,193.42,0,0,0,18-9.93l1.22-.76,1.21.79a149.63,149.63,0,0,0,21.65,11.75c2.87,1.26,5.49,2.29,8,3.23,3.53,1.3,6.91,2.4,10.58,3.59,6.17,2,12.42,3.81,18.65,5.39C232.8,50.79,232.77,50.68,232.75,50.58Z"/><path class="cls-4" d="M142.14,82.72a67.75,67.75,0,0,1-9.09-30.47,78.38,78.38,0,0,1-.17-9.36c0-.5.08-1.73.21-3.18a82.35,82.35,0,0,1,5.61-23.42l.12-.31a86.25,86.25,0,0,1,4.84-10.25A64.41,64.41,0,0,0,112,37.21a64,64,0,0,0,88,83.39l-.1,0c-.95-.19-1.88-.39-2.82-.61l-.58-.14c-.94-.22-1.88-.46-2.81-.71l-.5-.14c-.9-.25-1.78-.51-2.67-.78l-.27-.08c-.93-.29-1.86-.6-2.78-.92L187,117c-.92-.33-1.83-.66-2.74-1l-.31-.12c-.85-.33-1.7-.68-2.54-1l-.45-.19c-.88-.39-1.76-.79-2.63-1.2l-.53-.25c-.9-.43-1.78-.87-2.66-1.32-1.67-.87-3.74-2-6-3.23l-3.47-2,.1-.05A67.77,67.77,0,0,1,142.14,82.72Z"/></g></g></svg>